<svg width="80" height="80" viewBox="0 0 80 80" fill="none" xmlns="http://www.w3.org/2000/svg">
<path d="M57.5 11.875H22.5C21.3401 11.8764 20.2281 12.3378 19.408 13.158C18.5878 13.9781 18.1264 15.0901 18.125 16.25V31.5623L28.8751 23.4998C29.1779 23.2727 29.5424 23.1427 29.9205 23.1267C30.2986 23.1106 30.6727 23.2094 30.9937 23.41L39.8425 28.9404L53.8 17.3096C54.182 16.9913 54.6748 16.8378 55.17 16.8829C55.6652 16.928 56.1222 17.168 56.4404 17.55C56.7587 17.932 56.9121 18.4248 56.8671 18.92C56.822 19.4152 56.582 19.8722 56.2 20.1904L41.2006 32.6904C40.8973 32.9434 40.5218 33.0941 40.1278 33.1209C39.7337 33.1478 39.3412 33.0494 39.0064 32.84L30.0965 27.2711L18.125 36.2501C18.1264 37.41 18.5878 38.5219 19.408 39.3421C20.2281 40.1622 21.3401 40.6236 22.5 40.625H57.5C58.6599 40.6236 59.7719 40.1622 60.592 39.342C61.4122 38.5219 61.8736 37.4099 61.875 36.25V16.25C61.8736 15.0901 61.4122 13.9781 60.592 13.158C59.7719 12.3378 58.6599 11.8764 57.5 11.875Z" fill="#1ECA7B"/>
<path d="M73.75 0.625H6.25C4.75866 0.626625 3.32886 1.21978 2.27432 2.27432C1.21978 3.32886 0.626625 4.75866 0.625 6.25V58.75C0.626625 60.2413 1.21978 61.6711 2.27432 62.7257C3.32886 63.7802 4.75866 64.3734 6.25 64.375H7.5C7.99728 64.375 8.47419 64.1775 8.82583 63.8258C9.17746 63.4742 9.375 62.9973 9.375 62.5C9.375 62.0027 9.17746 61.5258 8.82583 61.1742C8.47419 60.8225 7.99728 60.625 7.5 60.625H6.25C5.75289 60.6245 5.27629 60.4267 4.92477 60.0752C4.57326 59.7237 4.37554 59.2471 4.375 58.75V6.25C4.37554 5.75289 4.57326 5.27629 4.92477 4.92477C5.27629 4.57326 5.75289 4.37554 6.25 4.375H73.75C74.2471 4.37554 74.7237 4.57326 75.0752 4.92477C75.4267 5.27629 75.6245 5.75289 75.625 6.25V58.75C75.6245 59.2471 75.4267 59.7237 75.0752 60.0752C74.7237 60.4267 74.2471 60.6245 73.75 60.625H72.5C72.0027 60.625 71.5258 60.8225 71.1742 61.1742C70.8225 61.5258 70.625 62.0027 70.625 62.5C70.625 62.9973 70.8225 63.4742 71.1742 63.8258C71.5258 64.1775 72.0027 64.375 72.5 64.375H73.75C75.2413 64.3734 76.6711 63.7802 77.7257 62.7257C78.7802 61.6711 79.3734 60.2413 79.375 58.75V6.25C79.3734 4.75866 78.7802 3.32886 77.7257 2.27432C76.6711 1.21978 75.2413 0.626625 73.75 0.625Z" fill="white"/>
<path d="M8.125 72.5V77.5C8.12503 77.9973 8.32258 78.4742 8.6742 78.8258C9.02583 79.1774 9.50273 79.375 10 79.375H70C70.4972 79.3749 70.9741 79.1773 71.3257 78.8257C71.6773 78.4741 71.8749 77.9972 71.875 77.5V72.5C71.8725 70.4206 71.3238 68.3783 70.284 66.5776C69.2441 64.7769 67.7495 63.2809 65.9498 62.2393C67.4432 61.0129 68.5211 59.355 69.036 57.4925C69.5509 55.63 69.4778 53.6538 68.8265 51.8345C68.1752 50.0152 66.9776 48.4415 65.3976 47.329C63.8176 46.2164 61.9324 45.6193 60 45.6193C58.0676 45.6193 56.1824 46.2164 54.6024 47.329C53.0224 48.4415 51.8248 50.0152 51.1735 51.8345C50.5222 53.6538 50.4491 55.63 50.964 57.4925C51.4789 59.355 52.5568 61.0129 54.0502 62.2393C52.4112 63.1936 51.0228 64.5243 50 66.1215C48.9772 64.5243 47.5888 63.1936 45.9498 62.2393C47.4432 61.0129 48.5211 59.355 49.036 57.4925C49.5509 55.63 49.4778 53.6538 48.8265 51.8345C48.1752 50.0152 46.9776 48.4415 45.3976 47.329C43.8176 46.2164 41.9324 45.6193 40 45.6193C38.0676 45.6193 36.1824 46.2164 34.6024 47.329C33.0224 48.4415 31.8248 50.0152 31.1735 51.8345C30.5222 53.6538 30.449 55.63 30.964 57.4925C31.4789 59.355 32.5568 61.0129 34.0502 62.2393C32.4112 63.1936 31.0228 64.5243 30 66.1215C28.9772 64.5243 27.5888 63.1936 25.9498 62.2393C27.4432 61.0129 28.5211 59.355 29.036 57.4925C29.551 55.63 29.4778 53.6538 28.8265 51.8345C28.1752 50.0152 26.9776 48.4415 25.3976 47.329C23.8176 46.2164 21.9324 45.6193 20 45.6193C18.0676 45.6193 16.1824 46.2164 14.6024 47.329C13.0224 48.4415 11.8248 50.0152 11.1735 51.8345C10.5222 53.6538 10.449 55.63 10.964 57.4925C11.4789 59.355 12.5568 61.0129 14.0502 62.2393C12.2505 63.2809 10.7559 64.7769 9.71605 66.5776C8.67619 68.3783 8.12754 70.4206 8.125 72.5ZM54.375 55C54.375 53.8875 54.7049 52.7999 55.323 51.8749C55.9411 50.9499 56.8196 50.2289 57.8474 49.8032C58.8752 49.3774 60.0062 49.266 61.0974 49.4831C62.1885 49.7001 63.1908 50.2359 63.9775 51.0225C64.7641 51.8092 65.2999 52.8115 65.5169 53.9026C65.734 54.9938 65.6226 56.1248 65.1968 57.1526C64.7711 58.1804 64.0501 59.0589 63.1251 59.677C62.2001 60.2951 61.1125 60.625 60 60.625C58.5087 60.6234 57.0789 60.0302 56.0243 58.9757C54.9698 57.9211 54.3766 56.4913 54.375 55ZM60 64.375C62.1541 64.3775 64.2193 65.2343 65.7425 66.7575C67.2657 68.2807 68.1225 70.3459 68.125 72.5V75.625H51.875V72.5C51.8775 70.3459 52.7343 68.2807 54.2575 66.7575C55.7807 65.2343 57.8459 64.3775 60 64.375ZM34.375 55C34.375 53.8875 34.7049 52.7999 35.323 51.8749C35.9411 50.9499 36.8196 50.2289 37.8474 49.8032C38.8752 49.3774 40.0062 49.266 41.0974 49.4831C42.1885 49.7001 43.1908 50.2359 43.9775 51.0225C44.7641 51.8092 45.2999 52.8115 45.5169 53.9026C45.734 54.9938 45.6226 56.1248 45.1968 57.1526C44.7711 58.1804 44.0501 59.0589 43.1251 59.677C42.2001 60.2951 41.1125 60.625 40 60.625C38.5087 60.6234 37.0789 60.0302 36.0243 58.9757C34.9698 57.9211 34.3766 56.4913 34.375 55ZM40 64.375C42.1541 64.3775 44.2193 65.2343 45.7425 66.7575C47.2657 68.2807 48.1225 70.3459 48.125 72.5V75.625H31.875V72.5C31.8775 70.3459 32.7343 68.2807 34.2575 66.7575C35.7807 65.2343 37.8459 64.3775 40 64.375ZM14.375 55C14.375 53.8875 14.7049 52.7999 15.323 51.8749C15.9411 50.9499 16.8196 50.2289 17.8474 49.8032C18.8752 49.3774 20.0062 49.266 21.0974 49.4831C22.1885 49.7001 23.1908 50.2359 23.9775 51.0225C24.7641 51.8092 25.2999 52.8115 25.5169 53.9026C25.734 54.9938 25.6226 56.1248 25.1968 57.1526C24.7711 58.1804 24.0501 59.0589 23.1251 59.677C22.2001 60.2951 21.1125 60.625 20 60.625C18.5087 60.6234 17.0789 60.0302 16.0243 58.9757C14.9698 57.9211 14.3766 56.4913 14.375 55ZM20 64.375C22.1541 64.3775 24.2193 65.2343 25.7425 66.7575C27.2657 68.2807 28.1225 70.3459 28.125 72.5V75.625H11.875V72.5C11.8775 70.3459 12.7343 68.2807 14.2575 66.7575C15.7807 65.2343 17.8459 64.3775 20 64.375Z" fill="white"/>
</svg>
