<svg width="80" height="80" viewBox="0 0 80 80" fill="none" xmlns="http://www.w3.org/2000/svg">
<path d="M61.25 58.125H56.25C55.4214 58.1258 54.627 58.4553 54.0411 59.0411C53.4553 59.627 53.1258 60.4214 53.125 61.25V66.25C53.1258 67.0786 53.4553 67.873 54.0411 68.4589C54.627 69.0447 55.4214 69.3742 56.25 69.375H61.25C62.0786 69.3742 62.873 69.0447 63.4589 68.4589C64.0447 67.873 64.3742 67.0786 64.375 66.25V61.25C64.3742 60.4214 64.0447 59.627 63.4589 59.0411C62.873 58.4553 62.0786 58.1258 61.25 58.125ZM60.625 65.625H56.875V61.875H60.625V65.625Z" fill="white"/>
<path d="M74.5049 48.125H47.0867C46.0621 48.1247 45.0698 48.4842 44.2832 49.1407C43.4965 49.7973 42.9654 50.7093 42.7825 51.7175L38.6919 74.2175C38.615 74.6834 38.6147 75.1589 38.6909 75.625H36.3416C36.6108 75.0296 36.7907 74.3978 36.8755 73.75V56.25C36.8788 52.8646 35.9335 49.546 34.1468 46.6705C32.3601 43.795 29.8034 41.4777 26.7667 39.9813C30.4388 38.1707 33.3897 35.1702 35.1389 31.4684C36.8881 27.7667 37.3325 23.5818 36.3997 19.5953C35.467 15.6088 33.2121 12.0554 30.0022 9.514C26.7923 6.97255 22.8165 5.59269 18.7223 5.59914C14.6282 5.60559 10.6567 6.99797 7.45487 9.54952C4.253 12.1011 2.00929 15.6615 1.08912 19.6509C0.168962 23.6404 0.626561 27.8238 2.3874 31.52C4.14824 35.2162 7.10858 38.2074 10.7863 40.0064C7.7088 41.5724 5.12813 43.9644 3.33349 46.9145C1.53885 49.8645 0.601151 53.256 0.625461 56.709V70C0.628174 72.4855 1.61677 74.8685 3.37433 76.6261C5.1319 78.3837 7.51489 79.3722 10.0005 79.375H70.4143C71.4389 79.3753 72.4311 79.0158 73.2178 78.3592C74.0044 77.7026 74.5356 76.7906 74.7185 75.7825L78.8091 53.2825C78.9237 52.652 78.8985 52.004 78.7351 51.3844C78.5718 50.7648 78.2743 50.1886 77.8637 49.6966C77.4531 49.2046 76.9395 48.8089 76.3591 48.5373C75.7786 48.2657 75.1457 48.1249 74.5049 48.125ZM30.6255 70.625C31.2885 70.625 31.9244 70.8884 32.3932 71.3572C32.8621 71.826 33.1255 72.4619 33.1255 73.125C33.1255 73.788 32.8621 74.4239 32.3932 74.8927C31.9244 75.3616 31.2885 75.625 30.6255 75.625H24.3755V70.625H30.6255ZM18.7505 9.37496C22.1446 9.37368 25.4286 10.5795 28.0155 12.7768C25.0676 15.1676 21.3851 16.4681 17.5896 16.4587H17.094C12.6343 16.5066 8.3045 17.9667 4.72664 20.6295C5.43935 17.4401 7.21616 14.5883 9.76488 12.5429C12.3136 10.4975 15.4825 9.38026 18.7505 9.37496ZM4.47396 25.3752C6.52662 24.256 10.0705 20.2087 17.094 20.2087H17.5896C22.3195 20.2215 26.9041 18.5749 30.545 15.5555C31.7932 17.3504 32.6153 19.4065 32.9486 21.5672C33.282 23.7279 33.1179 25.9362 32.4687 28.0239C31.8195 30.1115 30.7025 32.0235 29.2026 33.6142C27.7028 35.2049 25.8597 36.4322 23.8137 37.2029C21.7678 37.9735 19.5729 38.267 17.3964 38.0611C15.2199 37.8551 13.119 37.1552 11.2539 36.0145C9.38876 34.8739 7.80856 33.3226 6.63364 31.4789C5.45872 29.6352 4.72007 27.5476 4.47396 25.3752ZM4.37546 70V56.709C4.33985 54.7892 4.68417 52.8814 5.3886 51.0952C6.09304 49.309 7.14369 47.6797 8.48012 46.3011C9.81655 44.9225 11.4124 43.8217 13.1758 43.0621C14.9392 42.3025 16.8354 41.899 18.7553 41.875C20.643 41.8745 22.5123 42.246 24.2563 42.9683C26.0003 43.6906 27.5848 44.7495 28.9194 46.0845C30.2539 47.4195 31.3123 49.0044 32.034 50.7487C32.7557 52.4929 33.1266 54.3623 33.1255 56.25V67.3975C32.3373 67.052 31.486 66.874 30.6255 66.875H28.1255V56.25C28.1255 55.7527 27.9279 55.2758 27.5763 54.9241C27.2247 54.5725 26.7477 54.375 26.2505 54.375C25.7532 54.375 25.2763 54.5725 24.9246 54.9241C24.573 55.2758 24.3755 55.7527 24.3755 56.25V66.875H13.7505C13.5848 66.8746 13.426 66.8087 13.3089 66.6915C13.1917 66.5744 13.1258 66.4156 13.1255 66.25V56.25C13.1255 55.7527 12.9279 55.2758 12.5763 54.9241C12.2247 54.5725 11.7477 54.375 11.2505 54.375C10.7532 54.375 10.2763 54.5725 9.92463 54.9241C9.573 55.2758 9.37546 55.7527 9.37546 56.25V66.25C9.37686 67.4099 9.83825 68.5218 10.6584 69.342C11.4786 70.1622 12.5906 70.6236 13.7505 70.625H20.6255V75.625H10.0005C8.50912 75.6233 7.07932 75.0302 6.02478 73.9756C4.97024 72.9211 4.37709 71.4913 4.37546 70ZM71.0295 75.1111C71.0034 75.2552 70.9275 75.3856 70.815 75.4795C70.7026 75.5734 70.5608 75.6249 70.4143 75.625H42.9961C42.9045 75.6252 42.814 75.6053 42.731 75.5666C42.648 75.5279 42.5745 75.4715 42.5158 75.4012C42.4571 75.3309 42.4146 75.2486 42.3912 75.1601C42.3679 75.0715 42.3644 74.9789 42.3808 74.8889L46.4714 52.3889C46.4976 52.2447 46.5735 52.1143 46.6859 52.0204C46.7984 51.9265 46.9402 51.875 47.0867 51.875H74.5049C74.5964 51.8747 74.6869 51.8946 74.7699 51.9333C74.8529 51.972 74.9264 52.0285 74.9851 52.0987C75.0438 52.169 75.0864 52.2513 75.1097 52.3398C75.133 52.4284 75.1366 52.521 75.1201 52.611L71.0295 75.1111Z" fill="white"/>
<path d="M75 0.625H45C43.8401 0.626403 42.7281 1.08779 41.908 1.90796C41.0878 2.72812 40.6264 3.84011 40.625 5V30C40.6264 31.1599 41.0878 32.2719 41.908 33.092C42.7281 33.9122 43.8401 34.3736 45 34.375H49.375V40C49.3758 40.3479 49.4733 40.6888 49.6565 40.9845C49.8398 41.2803 50.1017 41.5193 50.4129 41.6749C50.724 41.8305 51.0724 41.8966 51.4189 41.8657C51.7655 41.8349 52.0967 41.7084 52.3755 41.5002L61.875 34.375H75C76.1599 34.3736 77.2719 33.9122 78.092 33.092C78.9122 32.2719 79.3736 31.1599 79.375 30V5C79.3736 3.84011 78.9122 2.72812 78.092 1.90796C77.2719 1.08779 76.1599 0.626403 75 0.625ZM53.8257 22.4243C53.9998 22.5984 54.1379 22.8051 54.2321 23.0325C54.3263 23.26 54.3748 23.5038 54.3748 23.75C54.3748 23.9962 54.3263 24.24 54.2321 24.4675C54.1379 24.6949 53.9998 24.9016 53.8257 25.0757C53.6516 25.2498 53.4449 25.3879 53.2175 25.4821C52.99 25.5763 52.7462 25.6248 52.5 25.6248C52.2538 25.6248 52.01 25.5763 51.7825 25.4821C51.5551 25.3879 51.3484 25.2498 51.1743 25.0757L44.9243 18.8257C44.7502 18.6516 44.612 18.445 44.5178 18.2175C44.4235 17.99 44.375 17.7462 44.375 17.5C44.375 17.2538 44.4235 17.01 44.5178 16.7825C44.612 16.555 44.7502 16.3484 44.9243 16.1743L51.1743 9.92431C51.5259 9.57272 52.0028 9.37519 52.5 9.37519C52.9972 9.37519 53.4741 9.57272 53.8257 9.92431C54.1773 10.2759 54.3748 10.7528 54.3748 11.25C54.3748 11.7472 54.1773 12.2241 53.8257 12.5757L48.9014 17.5L53.8257 22.4243ZM64.303 9.26514L59.303 26.7651C59.2356 27.0022 59.1222 27.2237 58.9692 27.417C58.8161 27.6102 58.6265 27.7714 58.4111 27.8912C58.1957 28.0111 57.9588 28.0873 57.714 28.1156C57.4691 28.1438 57.2211 28.1235 56.9841 28.0557C56.7471 27.988 56.5257 27.8742 56.3328 27.7209C56.1398 27.5676 55.9789 27.3777 55.8594 27.1621C55.7398 26.9466 55.664 26.7096 55.6361 26.4647C55.6082 26.2198 55.6289 25.9718 55.697 25.7349L60.697 8.23486C60.8342 7.75737 61.1553 7.35385 61.5898 7.11291C62.0243 6.87197 62.5366 6.8133 63.0144 6.94979C63.4921 7.08627 63.8961 7.40676 64.1377 7.84087C64.3793 8.27498 64.4387 8.78723 64.303 9.26514ZM75.0757 18.8257L68.8257 25.0757C68.4741 25.4273 67.9972 25.6248 67.5 25.6248C67.0028 25.6248 66.5259 25.4273 66.1743 25.0757C65.8227 24.7241 65.6252 24.2472 65.6252 23.75C65.6252 23.2528 65.8227 22.7759 66.1743 22.4243L71.0986 17.5L66.1743 12.5757C65.8227 12.2241 65.6252 11.7472 65.6252 11.25C65.6252 10.7528 65.8227 10.2759 66.1743 9.92431C66.5259 9.57272 67.0028 9.37519 67.5 9.37519C67.9972 9.37519 68.4741 9.57272 68.8257 9.92431L75.0757 16.1743C75.2498 16.3484 75.388 16.555 75.4822 16.7825C75.5765 17.01 75.625 17.2538 75.625 17.5C75.625 17.7462 75.5765 17.99 75.4822 18.2175C75.388 18.445 75.2498 18.6516 75.0757 18.8257Z" fill="#1ECA7B"/>
</svg>
