<svg width="74" height="80" viewBox="0 0 74 80" fill="none" xmlns="http://www.w3.org/2000/svg">
<path d="M45.125 0.625H6.375C4.88366 0.626625 3.45386 1.21978 2.39932 2.27432C1.34478 3.32886 0.751625 4.75866 0.75 6.25V73.75C0.751625 75.2413 1.34478 76.6711 2.39932 77.7257C3.45386 78.7802 4.88366 79.3734 6.375 79.375H45.125C46.6163 79.3734 48.0461 78.7802 49.1007 77.7257C50.1552 76.6711 50.7484 75.2413 50.75 73.75V62.5C50.75 62.0027 50.5525 61.5258 50.2008 61.1742C49.8492 60.8225 49.3723 60.625 48.875 60.625C48.3777 60.625 47.9008 60.8225 47.5492 61.1742C47.1975 61.5258 47 62.0027 47 62.5V66.875H4.5V13.125H47V18.75C47 19.2473 47.1975 19.7242 47.5492 20.0758C47.9008 20.4275 48.3777 20.625 48.875 20.625C49.3723 20.625 49.8492 20.4275 50.2008 20.0758C50.5525 19.7242 50.75 19.2473 50.75 18.75V6.25C50.7484 4.75866 50.1552 3.32886 49.1007 2.27432C48.0461 1.21978 46.6163 0.626625 45.125 0.625ZM47 70.625V73.75C46.9995 74.2471 46.8017 74.7237 46.4502 75.0752C46.0987 75.4267 45.6221 75.6245 45.125 75.625H6.375C5.87789 75.6245 5.40129 75.4267 5.04977 75.0752C4.69826 74.7237 4.50054 74.2471 4.5 73.75V70.625H47ZM4.5 9.375V6.25C4.50054 5.75289 4.69826 5.27629 5.04977 4.92477C5.40129 4.57326 5.87789 4.37554 6.375 4.375H45.125C45.6221 4.37554 46.0987 4.57326 46.4502 4.92477C46.8017 5.27629 46.9995 5.75289 47 6.25V9.375H4.5Z" fill="white"/>
<path d="M13.875 26.875H27.625C28.1223 26.875 28.5992 26.6775 28.9508 26.3258C29.3025 25.9742 29.5 25.4973 29.5 25C29.5 24.5027 29.3025 24.0258 28.9508 23.6742C28.5992 23.3225 28.1223 23.125 27.625 23.125H13.875C12.7151 23.1264 11.6031 23.5878 10.783 24.408C9.96279 25.2281 9.5014 26.3401 9.5 27.5V32.5C9.5014 33.6599 9.96279 34.7719 10.783 35.592C11.6031 36.4122 12.7151 36.8736 13.875 36.875H27.625C28.1223 36.875 28.5992 36.6775 28.9508 36.3258C29.3025 35.9742 29.5 35.4973 29.5 35C29.5 34.5027 29.3025 34.0258 28.9508 33.6742C28.5992 33.3225 28.1223 33.125 27.625 33.125H13.875C13.7093 33.1248 13.5505 33.0589 13.4333 32.9417C13.3161 32.8245 13.2502 32.6657 13.25 32.5V27.5C13.2502 27.3343 13.3161 27.1755 13.4333 27.0583C13.5505 26.9411 13.7093 26.8752 13.875 26.875Z" fill="white"/>
<path d="M9.5 50C9.5014 51.1599 9.96279 52.2719 10.783 53.092C11.6031 53.9122 12.7151 54.3736 13.875 54.375H27.625C28.1223 54.375 28.5992 54.1775 28.9508 53.8258C29.3025 53.4742 29.5 52.9973 29.5 52.5C29.5 52.0027 29.3025 51.5258 28.9508 51.1742C28.5992 50.8225 28.1223 50.625 27.625 50.625H13.875C13.7093 50.6248 13.5505 50.5589 13.4333 50.4417C13.3161 50.3245 13.2502 50.1657 13.25 50V45C13.2502 44.8343 13.3161 44.6755 13.4333 44.5583C13.5505 44.4411 13.7093 44.3752 13.875 44.375H27.625C28.1223 44.375 28.5992 44.1775 28.9508 43.8258C29.3025 43.4742 29.5 42.9973 29.5 42.5C29.5 42.0027 29.3025 41.5258 28.9508 41.1742C28.5992 40.8225 28.1223 40.625 27.625 40.625H13.875C12.7151 40.6264 11.6031 41.0878 10.783 41.908C9.96279 42.7281 9.5014 43.8401 9.5 45V50Z" fill="white"/>
<path d="M11.375 61.875H33.875C34.3723 61.875 34.8492 61.6775 35.2008 61.3258C35.5525 60.9742 35.75 60.4973 35.75 60C35.75 59.5027 35.5525 59.0258 35.2008 58.6742C34.8492 58.3225 34.3723 58.125 33.875 58.125H11.375C10.8777 58.125 10.4008 58.3225 10.0492 58.6742C9.69754 59.0258 9.5 59.5027 9.5 60C9.5 60.4973 9.69754 60.9742 10.0492 61.3258C10.4008 61.6775 10.8777 61.875 11.375 61.875Z" fill="white"/>
<path d="M68.875 23.125H38.875C37.7151 23.1264 36.6031 23.5878 35.783 24.408C34.9628 25.2281 34.5014 26.3401 34.5 27.5V50C34.5014 51.1599 34.9628 52.2719 35.783 53.092C36.6031 53.9122 37.7151 54.3736 38.875 54.375H42V58.75C42.0005 59.0845 42.0904 59.4128 42.2603 59.7009C42.4303 59.989 42.6742 60.2265 42.9667 60.3887C43.2592 60.5509 43.5898 60.6319 43.9242 60.6235C44.2586 60.615 44.5847 60.5174 44.8687 60.3406L54.4127 54.375H68.875C70.0349 54.3736 71.1469 53.9122 71.967 53.092C72.7872 52.2719 73.2486 51.1599 73.25 50V27.5C73.2486 26.3401 72.7872 25.2281 71.967 24.408C71.1469 23.5878 70.0349 23.1264 68.875 23.125ZM60.125 40.625H55.75V45C55.75 45.4973 55.5525 45.9742 55.2008 46.3258C54.8492 46.6775 54.3723 46.875 53.875 46.875C53.3777 46.875 52.9008 46.6775 52.5492 46.3258C52.1975 45.9742 52 45.4973 52 45V40.625H47.625C47.1277 40.625 46.6508 40.4275 46.2992 40.0758C45.9475 39.7242 45.75 39.2473 45.75 38.75C45.75 38.2527 45.9475 37.7758 46.2992 37.4242C46.6508 37.0725 47.1277 36.875 47.625 36.875H52V32.5C52 32.0027 52.1975 31.5258 52.5492 31.1742C52.9008 30.8225 53.3777 30.625 53.875 30.625C54.3723 30.625 54.8492 30.8225 55.2008 31.1742C55.5525 31.5258 55.75 32.0027 55.75 32.5V36.875H60.125C60.6223 36.875 61.0992 37.0725 61.4508 37.4242C61.8025 37.7758 62 38.2527 62 38.75C62 39.2473 61.8025 39.7242 61.4508 40.0758C61.0992 40.4275 60.6223 40.625 60.125 40.625Z" fill="#1ECA7B"/>
</svg>
