<svg width="80" height="80" viewBox="0 0 80 80" fill="none" xmlns="http://www.w3.org/2000/svg">
<path d="M47.7661 0.625011C44.9664 0.615147 42.2399 1.51856 40 3.19825C38.0977 1.77384 35.8388 0.902763 33.4727 0.681157C31.1065 0.459552 28.7252 0.896041 26.5914 1.94244C24.4577 2.98884 22.6546 4.60447 21.3812 6.61097C20.1077 8.61747 19.4135 10.9368 19.375 13.313C19.375 29.8285 38.49 37.6654 39.3036 37.9907C39.7506 38.1698 40.2494 38.1698 40.6964 37.9907C41.51 37.6654 60.625 29.8285 60.625 13.313C60.5983 9.92653 59.2295 6.68891 56.8189 4.31032C54.4083 1.93173 51.1526 0.606386 47.7661 0.625011ZM48.75 20.625H41.875V27.5C41.875 27.9973 41.6775 28.4742 41.3258 28.8258C40.9742 29.1775 40.4973 29.375 40 29.375C39.5027 29.375 39.0258 29.1775 38.6742 28.8258C38.3225 28.4742 38.125 27.9973 38.125 27.5V20.625H31.25C30.7527 20.625 30.2758 20.4275 29.9242 20.0758C29.5725 19.7242 29.375 19.2473 29.375 18.75C29.375 18.2527 29.5725 17.7758 29.9242 17.4242C30.2758 17.0726 30.7527 16.875 31.25 16.875H38.125V10C38.125 9.50273 38.3225 9.02582 38.6742 8.67418C39.0258 8.32255 39.5027 8.12501 40 8.12501C40.4973 8.12501 40.9742 8.32255 41.3258 8.67418C41.6775 9.02582 41.875 9.50273 41.875 10V16.875H48.75C49.2473 16.875 49.7242 17.0726 50.0758 17.4242C50.4275 17.7758 50.625 18.2527 50.625 18.75C50.625 19.2473 50.4275 19.7242 50.0758 20.0758C49.7242 20.4275 49.2473 20.625 48.75 20.625Z" fill="#1ECA7B"/>
<path d="M70 60.625H46.25C45.2142 60.6223 44.2129 60.2519 43.4247 59.5798C42.6365 58.9077 42.1126 57.9775 41.9463 56.9551L53.2764 45.625H54.3591C56.0341 45.6254 57.6516 45.014 58.9075 43.9056L76.1169 28.7201C77.5832 27.4266 78.6208 25.7174 79.0917 23.8197C79.5626 21.9221 79.4445 19.926 78.7531 18.0971C78.0617 16.2683 76.8297 14.6933 75.2212 13.5818C73.6126 12.4703 71.7038 11.8749 69.7485 11.875H68.125V10C68.125 9.50272 67.9275 9.02581 67.5758 8.67417C67.2242 8.32254 66.7473 8.125 66.25 8.125C65.7527 8.125 65.2758 8.32254 64.9242 8.67417C64.5725 9.02581 64.375 9.50272 64.375 10V17.5C64.375 17.9973 64.5725 18.4742 64.9242 18.8258C65.2758 19.1775 65.7527 19.375 66.25 19.375C66.7473 19.375 67.2242 19.1775 67.5758 18.8258C67.9275 18.4742 68.125 17.9973 68.125 17.5V15.625H69.7485C70.9421 15.6251 72.1073 15.9887 73.0892 16.6673C74.0711 17.3458 74.8231 18.3073 75.2452 19.4237C75.6673 20.5402 75.7394 21.7586 75.452 22.9171C75.1647 24.0755 74.5314 25.119 73.6365 25.9087L56.427 41.0931C55.8561 41.5971 55.1207 41.8751 54.3591 41.875H25.6403C24.879 41.8751 24.1439 41.5973 23.573 41.0938L6.36353 25.9082C5.46853 25.1185 4.83522 24.075 4.54786 22.9165C4.2605 21.758 4.33271 20.5395 4.75488 19.4231C5.17705 18.3066 5.92918 17.3452 6.91118 16.6668C7.89318 15.9883 9.05849 15.6249 10.2521 15.625H11.875V17.5C11.875 17.9973 12.0725 18.4742 12.4242 18.8258C12.7758 19.1775 13.2527 19.375 13.75 19.375C14.2473 19.375 14.7242 19.1775 15.0758 18.8258C15.4275 18.4742 15.625 17.9973 15.625 17.5V10C15.625 9.50272 15.4275 9.02581 15.0758 8.67417C14.7242 8.32254 14.2473 8.125 13.75 8.125C13.2527 8.125 12.7758 8.32254 12.4242 8.67417C12.0725 9.02581 11.875 9.50272 11.875 10V11.875H10.2521C8.29687 11.8749 6.38799 12.4702 4.77941 13.5817C3.17083 14.6931 1.93882 16.268 1.24729 18.0968C0.55576 19.9257 0.4375 21.9217 0.908245 23.8194C1.37899 25.7171 2.41642 27.4265 3.8825 28.7201L21.0919 43.9056C22.3478 45.0139 23.9653 45.6254 25.6403 45.625H26.7236L38.1664 57.0678C38.3715 59.0699 39.3113 60.9249 40.8043 62.2745C42.2973 63.624 44.2375 64.3724 46.25 64.375H70C71.4918 64.375 72.9226 64.9676 73.9775 66.0225C75.0324 67.0774 75.625 68.5082 75.625 70C75.625 71.4918 75.0324 72.9226 73.9775 73.9775C72.9226 75.0324 71.4918 75.625 70 75.625H22.5C20.3459 75.6225 18.2807 74.7657 16.7575 73.2425C15.2343 71.7193 14.3775 69.6541 14.375 67.5V62.8979C16.3127 62.4383 18.0141 61.2831 19.1562 59.6517C20.2982 58.0203 20.8013 56.0262 20.57 54.0483C20.3386 52.0703 19.3889 50.2462 17.9012 48.9224C16.4135 47.5986 14.4914 46.8672 12.5 46.8672C10.5086 46.8672 8.58648 47.5986 7.09878 48.9224C5.61107 50.2462 4.66137 52.0703 4.43002 54.0483C4.19867 56.0262 4.7018 58.0203 5.84384 59.6517C6.98589 61.2831 8.68732 62.4383 10.625 62.8979V67.5C10.6286 70.6483 11.8808 73.6667 14.1071 75.8929C16.3333 78.1192 19.3517 79.3714 22.5 79.375H70C72.4864 79.375 74.871 78.3873 76.6291 76.6291C78.3873 74.871 79.375 72.4864 79.375 70C79.375 67.5136 78.3873 65.129 76.6291 63.3709C74.871 61.6127 72.4864 60.625 70 60.625ZM47.9736 45.625L40 53.5986L32.0264 45.625H47.9736ZM8.125 55C8.125 54.1347 8.38159 53.2888 8.86233 52.5694C9.34306 51.8499 10.0263 51.2892 10.8258 50.958C11.6252 50.6269 12.5049 50.5403 13.3535 50.7091C14.2022 50.8779 14.9817 51.2946 15.5936 51.9064C16.2055 52.5183 16.6221 53.2978 16.7909 54.1465C16.9598 54.9951 16.8731 55.8748 16.542 56.6742C16.2108 57.4737 15.6501 58.1569 14.9306 58.6377C14.2112 59.1184 13.3653 59.375 12.5 59.375C11.3401 59.3736 10.2281 58.9122 9.40796 58.092C8.58779 57.2719 8.12641 56.1599 8.125 55Z" fill="white"/>
</svg>
