<svg width="80" height="80" viewBox="0 0 80 80" fill="none" xmlns="http://www.w3.org/2000/svg">
<path d="M53.01 73.1587C45.3905 76.154 36.972 76.4334 29.1707 73.9501C21.3694 71.4667 14.6614 66.3722 10.1755 59.5236C5.68957 52.675 3.69939 44.4902 4.53981 36.3465C5.38023 28.2027 8.99996 20.5969 14.79 14.8087L16.8937 12.7062V18.7862C16.8937 19.2835 17.0913 19.7604 17.4429 20.1121C17.7945 20.4637 18.2715 20.6612 18.7687 20.6612C19.266 20.6612 19.7429 20.4637 20.0946 20.1121C20.4462 19.7604 20.6437 19.2835 20.6437 18.7862V8.17999C20.6437 7.68271 20.4462 7.20579 20.0946 6.85416C19.7429 6.50253 19.266 6.30499 18.7687 6.30499H8.16124C7.66396 6.30499 7.18704 6.50253 6.83541 6.85416C6.48378 7.20579 6.28624 7.68271 6.28624 8.17999C6.28624 8.67727 6.48378 9.15418 6.83541 9.50581C7.18704 9.85745 7.66396 10.055 8.16124 10.055H14.2412L12.1387 12.1575C5.74114 18.5548 1.74177 26.9601 0.813297 35.9597C-0.115172 44.9593 2.08391 54.0041 7.04066 61.5728C11.9974 69.1415 19.4094 74.7723 28.03 77.5182C36.6506 80.2641 45.9539 79.9575 54.375 76.65C54.838 76.4677 55.2095 76.1089 55.408 75.6526C55.6064 75.1963 55.6154 74.6798 55.4331 74.2169C55.2508 73.7539 54.892 73.3823 54.4357 73.1839C53.9794 72.9854 53.463 72.9764 53 73.1587H53.01ZM71.8387 69.945H65.7575L67.86 67.8425C74.2572 61.4452 78.2563 53.0401 79.1847 44.0408C80.113 35.0415 77.914 25.997 72.9575 18.4285C68.0011 10.8599 60.5894 5.22911 51.9692 2.48301C43.349 -0.263092 34.046 0.0430661 25.625 3.34999C25.162 3.53233 24.7904 3.89111 24.592 4.34741C24.3936 4.80371 24.3845 5.32015 24.5669 5.78311C24.7492 6.24608 25.108 6.61766 25.5643 6.81609C26.0206 7.01453 26.537 7.02358 27 6.84124C34.6194 3.84661 43.0376 3.56759 50.8386 6.05113C58.6395 8.53467 65.347 13.6292 69.8327 20.4777C74.3184 27.3261 76.3085 35.5105 75.4681 43.654C74.6278 51.7975 71.0084 59.4031 65.2187 65.1912L63.1175 67.2925V61.2125C63.1175 60.7152 62.9199 60.2383 62.5683 59.8867C62.2167 59.535 61.7398 59.3375 61.2425 59.3375C60.7452 59.3375 60.2683 59.535 59.9167 59.8867C59.565 60.2383 59.3675 60.7152 59.3675 61.2125V71.82C59.3691 72.3168 59.5672 72.7927 59.9185 73.144C60.2698 73.4953 60.7457 73.6933 61.2425 73.695H71.8487C72.346 73.695 72.8229 73.4974 73.1746 73.1458C73.5262 72.7942 73.7237 72.3173 73.7237 71.82C73.7237 71.3227 73.5262 70.8458 73.1746 70.4942C72.8229 70.1425 72.346 69.945 71.8487 69.945H71.8387Z" fill="white"/>
<path d="M59.845 34.4325C59.7222 33.9943 59.4442 33.6157 59.0629 33.3673C58.6816 33.1189 58.2229 33.0177 57.7725 33.0825C57.1539 33.1763 56.5214 33.0814 55.9576 32.8102C55.3938 32.539 54.9248 32.1041 54.612 31.5623C54.2991 31.0205 54.1568 30.3969 54.2037 29.7731C54.2507 29.1492 54.4846 28.5539 54.875 28.065C55.1578 27.7081 55.301 27.2606 55.278 26.8058C55.255 26.3511 55.0673 25.9203 54.75 25.5938C52.1053 22.8889 48.7664 20.9652 45.1 20.0338C44.6587 19.9218 44.1917 19.9741 43.7862 20.1812C43.3807 20.3882 43.0644 20.7356 42.8963 21.1588C42.6677 21.7402 42.2693 22.2392 41.7531 22.591C41.2368 22.9428 40.6266 23.1309 40.0019 23.1309C39.3772 23.1309 38.7669 22.9428 38.2507 22.591C37.7344 22.2392 37.3361 21.7402 37.1075 21.1588C36.9382 20.7368 36.6214 20.3907 36.216 20.1849C35.8106 19.9791 35.3443 19.9276 34.9038 20.04C31.2367 20.9693 27.8966 22.8908 25.25 25.5938C24.9318 25.9195 24.7429 26.3499 24.7188 26.8047C24.6946 27.2594 24.8368 27.7074 25.1187 28.065C25.5096 28.5536 25.7439 29.1487 25.7912 29.7725C25.8385 30.3964 25.6966 31.02 25.3839 31.5619C25.0712 32.1039 24.6024 32.5389 24.0386 32.8101C23.4748 33.0814 22.8423 33.1763 22.2237 33.0825C21.7733 33.0177 21.3147 33.1189 20.9333 33.3673C20.552 33.6157 20.274 33.9943 20.1513 34.4325C19.111 38.0709 19.111 41.9279 20.1513 45.5663C20.274 46.0045 20.552 46.3831 20.9333 46.6315C21.3147 46.8798 21.7733 46.9811 22.2237 46.9163C22.8429 46.8213 23.4762 46.9154 24.0409 47.1863C24.6057 47.4572 25.0755 47.8922 25.389 48.4344C25.7025 48.9767 25.845 49.6009 25.7979 50.2255C25.7508 50.8501 25.5163 51.4459 25.125 51.935C24.843 52.2926 24.7009 52.7406 24.725 53.1954C24.7492 53.6501 24.938 54.0805 25.2563 54.4063C27.9001 57.1106 31.2382 59.0339 34.9038 59.965C35.345 60.077 35.812 60.0246 36.2175 59.8176C36.623 59.6106 36.9394 59.2631 37.1075 58.84C37.3365 58.2591 37.7351 57.7606 38.2513 57.4092C38.7675 57.0579 39.3775 56.87 40.0019 56.87C40.6263 56.87 41.2363 57.0579 41.7525 57.4092C42.2687 57.7606 42.6672 58.2591 42.8963 58.84C43.0644 59.2631 43.3807 59.6106 43.7862 59.8176C44.1917 60.0246 44.6587 60.077 45.1 59.965C48.7661 59.0335 52.1049 57.1103 54.75 54.4063C55.0673 54.0797 55.255 53.6489 55.278 53.1942C55.301 52.7394 55.1578 52.2919 54.875 51.935C54.4841 51.4459 54.2498 50.8501 54.2027 50.2257C54.1557 49.6013 54.298 48.9772 54.6112 48.435C54.9254 47.8949 55.3944 47.4614 55.9574 47.1904C56.5205 46.9194 57.1519 46.8235 57.77 46.915C58.2204 46.9798 58.6791 46.8786 59.0604 46.6302C59.4417 46.3818 59.7197 46.0032 59.8425 45.565C60.8828 41.9267 60.8828 38.0696 59.8425 34.4313L59.845 34.4325ZM40 46.875C38.6403 46.875 37.311 46.4718 36.1805 45.7164C35.0499 44.9609 34.1687 43.8872 33.6483 42.631C33.128 41.3747 32.9918 39.9924 33.2571 38.6588C33.5224 37.3251 34.1772 36.1001 35.1386 35.1387C36.1001 34.1772 37.3251 33.5224 38.6588 33.2571C39.9924 32.9918 41.3747 33.128 42.6309 33.6483C43.8872 34.1687 44.9609 35.0499 45.7164 36.1805C46.4718 37.3111 46.875 38.6403 46.875 40C46.873 41.8228 46.148 43.5703 44.8592 44.8592C43.5703 46.1481 41.8228 46.873 40 46.875Z" fill="#1ECA7B"/>
</svg>
