<svg width="32" height="32" viewBox="0 0 32 32" fill="none" xmlns="http://www.w3.org/2000/svg">
<path d="M3.33331 15.9999C3.33331 10.0288 3.33331 7.04324 5.1883 5.18824C7.0433 3.33325 10.0289 3.33325 16 3.33325C21.971 3.33325 24.9566 3.33325 26.8117 5.18824C28.6666 7.04324 28.6666 10.0288 28.6666 15.9999C28.6666 21.971 28.6666 24.9566 26.8117 26.8117C24.9566 28.6666 21.971 28.6666 16 28.6666C10.0289 28.6666 7.0433 28.6666 5.1883 26.8117C3.33331 24.9566 3.33331 21.971 3.33331 15.9999Z" fill="white"/>
<path d="M9.33331 13.3333V22.6666" stroke="#141B34" stroke-width="1.5" stroke-linecap="round" stroke-linejoin="round"/>
<path d="M14.6667 17.3333V22.6666M14.6667 17.3333C14.6667 15.1241 16.4575 13.3333 18.6667 13.3333C20.8759 13.3333 22.6667 15.1241 22.6667 17.3333V22.6666M14.6667 17.3333V13.3333" stroke="#141B34" stroke-width="1.5" stroke-linecap="round" stroke-linejoin="round"/>
<path d="M9.34402 9.33325H9.33203" stroke="#141B34" stroke-width="2" stroke-linecap="round" stroke-linejoin="round"/>
</svg>
